<?xml version="1.0" standalone="no"?>
<!DOCTYPE svg PUBLIC "-//W3C//DTD SVG 20010904//EN"
 "http://www.w3.org/TR/2001/REC-SVG-20010904/DTD/svg10.dtd">
<svg version="1.0" xmlns="http://www.w3.org/2000/svg"
 width="830px" height="552px" viewBox="0 0 1200.000000 1200.000000"
 preserveAspectRatio="xMidYMid meet">
<metadata>
Created by potrace 1.16, written by Peter Selinger 2001-2019
</metadata>
<g transform="translate(0.000000,1200.000000) scale(0.100000,-0.100000)"
fill="#000000" stroke="none">
<path d="M5910 9022 c-132 -75 -469 -269 -765 -442 -148 -86 -397 -230 -552
-319 l-283 -163 0 -973 0 -972 118 -69 c64 -37 218 -126 342 -197 124 -71 320
-185 435 -252 116 -67 284 -165 375 -217 91 -52 208 -120 260 -150 159 -92
156 -91 189 -73 24 12 621 356 1479 853 l182 105 -2 974 -3 974 -270 155
c-148 86 -385 222 -525 303 -518 301 -865 500 -880 505 -8 3 -53 -16 -100 -42z
m281 -228 c101 -59 337 -195 524 -304 187 -108 449 -259 582 -336 l242 -139 1
-890 0 -890 -38 -21 c-57 -32 -782 -451 -1291 -746 -112 -65 -207 -118 -211
-118 -4 0 -99 53 -211 118 -294 170 -805 466 -1086 628 l-242 139 -1 890 0
890 178 102 c97 56 218 125 267 154 50 29 101 58 115 66 14 7 237 136 495 287
259 151 475 274 481 275 6 1 94 -47 195 -105z"/>
<path d="M5840 7869 c-80 -45 -148 -84 -152 -88 -4 -4 -8 -37 -9 -75 -2 -79
18 -61 -216 -191 l-143 -80 0 -167 0 -168 -59 -29 c-95 -48 -91 -39 -91 -229
0 -92 4 -172 8 -178 4 -6 74 -48 156 -93 153 -85 159 -86 222 -60 30 12 38 8
231 -99 110 -62 206 -112 213 -112 7 0 103 50 213 112 193 107 201 111 231 99
64 -26 69 -25 222 60 82 45 152 87 156 93 4 6 8 90 8 187 l0 176 -75 37 -75
37 0 167 0 167 -135 75 c-74 41 -155 88 -181 103 l-46 28 3 71 c3 55 1 72 -11
78 -8 5 -79 42 -157 84 -79 42 -149 76 -155 76 -7 -1 -78 -37 -158 -81z m273
-55 c54 -31 97 -57 95 -59 -2 -1 -49 -28 -105 -59 l-102 -56 -103 56 c-57 31
-104 58 -106 59 -6 5 193 115 207 115 8 0 59 -25 114 -56z m-261 -173 c47 -26
93 -51 102 -54 12 -5 15 -27 15 -127 -1 -67 -4 -120 -9 -118 -4 2 -53 28 -109
58 l-101 55 0 118 c0 64 3 117 8 117 4 0 46 -22 94 -49z m398 -68 l0 -118
-101 -55 c-56 -30 -105 -56 -109 -58 -5 -2 -8 51 -9 117 l0 120 102 55 c56 31
105 56 110 56 4 0 7 -53 7 -117z m-571 -89 c0 -36 1 -67 3 -69 21 -21 317
-174 328 -170 8 4 81 43 163 87 163 91 153 78 147 187 -1 18 3 32 8 30 6 -2
71 -38 146 -79 l136 -75 0 -122 c0 -68 -3 -123 -7 -123 -5 0 -28 12 -52 25
l-44 26 -46 -25 c-25 -13 -98 -53 -161 -89 l-115 -64 -2 -174 c-2 -96 0 -179
5 -185 4 -6 37 -28 74 -48 37 -21 70 -41 73 -46 5 -9 -314 -190 -335 -190 -7
0 -51 22 -99 49 -47 26 -117 65 -156 86 -38 21 -74 41 -78 45 -10 9 5 21 78
59 33 18 63 38 67 45 9 16 13 351 4 365 -4 6 -12 11 -18 11 -6 0 -77 36 -158
80 l-147 81 -44 -26 c-24 -13 -47 -25 -51 -25 -5 0 -8 55 -8 123 l0 122 138
77 c75 42 140 77 144 77 4 1 7 -29 7 -65z m-74 -423 l106 -59 -101 -56 c-55
-31 -106 -56 -113 -56 -17 0 -207 103 -207 111 0 4 17 16 38 27 20 11 66 36
102 56 36 20 66 36 67 36 1 0 49 -27 108 -59z m1000 4 c55 -29 101 -57 102
-62 3 -9 -171 -106 -198 -111 -9 -2 -63 22 -118 54 l-102 56 103 59 c57 31
105 58 108 58 3 0 50 -24 105 -54z m-1246 -185 l101 -55 0 -123 0 -124 -32 20
c-74 44 -154 89 -171 95 -16 6 -17 20 -16 127 0 67 4 120 9 118 4 -2 53 -28
109 -58z m391 -58 l0 -119 -107 -61 -108 -61 -3 116 c-2 85 1 120 10 129 7 7
49 31 93 54 44 24 84 47 90 51 21 20 25 3 25 -109z m611 60 l104 -58 3 -117
c2 -75 -1 -117 -8 -117 -5 0 -55 25 -110 56 l-100 56 0 119 c0 65 2 119 4 119
2 0 50 -26 107 -58z m398 -62 l1 -119 -57 -30 c-32 -17 -82 -44 -110 -61 l-53
-30 0 122 0 123 103 57 c56 31 105 57 109 57 3 1 7 -53 7 -119z"/>
<path d="M1500 3730 l0 -360 330 0 330 0 0 55 0 55 -275 0 -275 0 0 100 0 100
220 0 220 0 0 53 0 52 -219 -3 -220 -3 -3 100 -3 101 278 0 277 0 0 55 0 55
-330 0 -330 0 0 -360z"/>
<path d="M2270 3730 l0 -360 361 0 360 0 -3 53 -3 52 -307 3 -308 2 0 305 0
305 -50 0 -50 0 0 -360z"/>
<path d="M3050 3730 l0 -360 330 0 330 0 0 55 0 55 -274 0 c-244 0 -275 2
-278 16 -2 9 -2 54 0 100 l3 84 220 0 219 0 0 50 0 50 -220 0 -220 0 0 100 0
100 273 2 272 3 3 53 3 52 -330 0 -331 0 0 -360z"/>
<path d="M3895 4080 c-11 -4 -31 -20 -45 -35 l-25 -27 -3 -273 c-3 -304 -1
-318 61 -355 30 -18 52 -20 292 -20 240 0 262 2 292 20 60 36 65 53 64 216 -1
81 -3 149 -5 151 -3 4 -169 6 -243 4 -21 -1 -23 -6 -23 -51 l0 -50 85 0 86 0
-3 -87 -3 -88 -250 0 -250 0 0 245 0 245 250 0 250 0 3 -27 c3 -26 6 -28 52
-28 56 0 65 13 50 69 -10 38 -37 69 -77 90 -26 13 -526 15 -558 1z"/>
<path d="M4713 4070 c-62 -37 -63 -46 -63 -390 l0 -310 50 0 c41 0 50 3 51 18
0 9 0 65 0 125 l0 107 254 0 255 0 0 -125 0 -125 55 0 55 0 0 305 c0 441 22
415 -362 415 -243 0 -265 -2 -295 -20z m545 -217 l3 -123 -250 0 -249 0 -6 23
c-8 29 -7 142 0 190 l7 37 246 -2 246 -3 3 -122z"/>
<path d="M5490 3730 l0 -360 50 0 50 0 0 286 c0 177 4 283 9 279 10 -5 85 -94
333 -390 69 -83 132 -156 141 -163 10 -8 36 -12 73 -10 56 3 58 4 57 31 -1 15
-1 176 -2 357 l-1 330 -50 0 -50 0 -2 -287 -3 -288 -75 91 c-41 50 -149 179
-240 287 l-165 197 -62 0 -63 0 0 -360z"/>
<path d="M6280 4035 l0 -55 155 0 155 0 0 -305 0 -305 50 0 c41 0 50 3 51 18
0 9 0 146 1 305 l0 287 154 0 154 0 0 55 0 55 -360 0 -360 0 0 -55z"/>
<path d="M7433 4070 c-62 -37 -64 -51 -61 -354 3 -258 4 -275 23 -296 42 -47
65 -50 385 -50 l300 0 0 55 0 55 -295 0 c-281 0 -295 1 -305 19 -6 12 -10 104
-10 231 0 127 4 219 10 231 10 18 24 19 305 19 l295 0 0 55 0 55 -307 0 c-288
0 -310 -1 -340 -20z"/>
<path d="M8253 4070 c-63 -38 -63 -40 -64 -339 0 -301 0 -302 64 -341 30 -18
52 -20 293 -20 255 0 262 1 295 23 57 39 59 46 59 343 0 376 22 354 -357 354
-238 0 -260 -2 -290 -20z m542 -340 l0 -245 -250 0 -250 0 -3 235 c-1 129 0
240 3 247 3 11 57 13 252 11 l248 -3 0 -245z"/>
<path d="M9020 3730 l0 -360 305 0 c330 0 334 1 385 55 l25 27 0 276 c0 258
-1 279 -20 306 -36 53 -56 56 -390 56 l-305 0 0 -360z m605 0 l0 -245 -246 -3
-247 -2 -6 26 c-8 30 -6 441 1 461 4 11 56 13 252 11 l246 -3 0 -245z"/>
<path d="M9850 3730 l0 -360 331 0 330 0 -3 53 -3 52 -272 3 -273 2 0 100 0
100 220 0 220 0 0 50 0 50 -220 0 -220 0 0 100 0 100 273 2 272 3 3 53 3 52
-330 0 -331 0 0 -360z"/>
</g>
</svg>
